<svg width="32" height="32" viewBox="0 0 25 25" fill="none" xmlns="http://www.w3.org/2000/svg">
<path fill-rule="evenodd" clip-rule="evenodd" d="M16.8406 9.37512H8.15937C7.68015 9.37512 7.29167 9.76361 7.29167 10.2428V17.1876C7.29167 18.6259 8.45759 19.7918 9.89583 19.7918H15.1042C15.7948 19.7918 16.4572 19.5174 16.9456 19.029C17.434 18.5407 17.7083 17.8783 17.7083 17.1876V10.2428C17.7083 9.76361 17.3198 9.37512 16.8406 9.37512Z" stroke="#F5F5F5" stroke-width="1.5" stroke-linecap="round" stroke-linejoin="round"/>
<path fill-rule="evenodd" clip-rule="evenodd" d="M15.625 7.29179L15.5146 7.072C14.9436 5.92987 13.7764 5.20837 12.4995 5.20837C11.2226 5.20837 10.0553 5.92987 9.48437 7.072L9.375 7.29179H15.625Z" stroke="#F5F5F5" stroke-width="1.5" stroke-linecap="round" stroke-linejoin="round"/>
<path d="M11.5135 12.847C11.5135 12.4327 11.1778 12.097 10.7635 12.097C10.3493 12.097 10.0135 12.4327 10.0135 12.847H10.7635H11.5135ZM10.0135 16.3188C10.0135 16.733 10.3493 17.0688 10.7635 17.0688C11.1778 17.0688 11.5135 16.733 11.5135 16.3188H10.7635H10.0135ZM14.9865 12.847C14.9865 12.4327 14.6507 12.097 14.2365 12.097C13.8222 12.097 13.4865 12.4327 13.4865 12.847H14.2365H14.9865ZM13.4865 16.3188C13.4865 16.733 13.8222 17.0688 14.2365 17.0688C14.6507 17.0688 14.9865 16.733 14.9865 16.3188H14.2365H13.4865ZM15.625 6.54175C15.2108 6.54175 14.875 6.87753 14.875 7.29175C14.875 7.70596 15.2108 8.04175 15.625 8.04175V7.29175V6.54175ZM17.7083 8.04175C18.1225 8.04175 18.4583 7.70596 18.4583 7.29175C18.4583 6.87753 18.1225 6.54175 17.7083 6.54175V7.29175V8.04175ZM9.375 8.04175C9.78921 8.04175 10.125 7.70596 10.125 7.29175C10.125 6.87753 9.78921 6.54175 9.375 6.54175V7.29175V8.04175ZM7.29167 6.54175C6.87745 6.54175 6.54167 6.87753 6.54167 7.29175C6.54167 7.70596 6.87745 8.04175 7.29167 8.04175V7.29175V6.54175ZM10.7635 12.847H10.0135V16.3188H10.7635H11.5135V12.847H10.7635ZM14.2365 12.847H13.4865V16.3188H14.2365H14.9865V12.847H14.2365ZM15.625 7.29175V8.04175H17.7083V7.29175V6.54175H15.625V7.29175ZM9.375 7.29175V6.54175H7.29167V7.29175V8.04175H9.375V7.29175Z" fill="#F5F5F5"/>
</svg>
