<svg width="25" height="25" viewBox="0 0 20 20" fill="none" xmlns="http://www.w3.org/2000/svg">
<path d="M9.99999 18.3333C5.39749 18.3333 1.66666 14.6025 1.66666 9.99996C1.66666 5.39746 5.39749 1.66663 9.99999 1.66663C14.6025 1.66663 18.3333 5.39746 18.3333 9.99996C18.3333 14.6025 14.6025 18.3333 9.99999 18.3333ZM9.99999 16.6666C11.7681 16.6666 13.4638 15.9642 14.714 14.714C15.9643 13.4638 16.6667 11.7681 16.6667 9.99996C16.6667 8.23185 15.9643 6.53616 14.714 5.28591C13.4638 4.03567 11.7681 3.33329 9.99999 3.33329C8.23188 3.33329 6.53619 4.03567 5.28594 5.28591C4.0357 6.53616 3.33332 8.23185 3.33332 9.99996C3.33332 11.7681 4.0357 13.4638 5.28594 14.714C6.53619 15.9642 8.23188 16.6666 9.99999 16.6666ZM9.16916 13.3333L5.63332 9.79746L6.81166 8.61913L9.16916 10.9766L13.8833 6.26246L15.0617 7.44079L9.16916 13.3333Z" fill="#7A7777"/>
</svg>
