<svg width="25" height="25" viewBox="0 0 20 20" fill="none" xmlns="http://www.w3.org/2000/svg">
<path d="M10.3333 17C8.56522 17 6.86953 16.2976 5.61929 15.0474C4.36905 13.7971 3.66667 12.1014 3.66667 10.3333C3.66667 8.56522 4.36905 6.86953 5.61929 5.61929C6.86953 4.36905 8.56522 3.66667 10.3333 3.66667C12.1014 3.66667 13.7971 4.36905 15.0474 5.61929C16.2976 6.86953 17 8.56522 17 10.3333C17 12.1014 16.2976 13.7971 15.0474 15.0474C13.7971 16.2976 12.1014 17 10.3333 17ZM10.3333 2C9.23898 2 8.15535 2.21555 7.1443 2.63434C6.13326 3.05313 5.2146 3.66696 4.44078 4.44078C2.87797 6.00358 2 8.1232 2 10.3333C2 12.5435 2.87797 14.6631 4.44078 16.2259C5.2146 16.9997 6.13326 17.6135 7.1443 18.0323C8.15535 18.4511 9.23898 18.6667 10.3333 18.6667C12.5435 18.6667 14.6631 17.7887 16.2259 16.2259C17.7887 14.6631 18.6667 12.5435 18.6667 10.3333C18.6667 9.23898 18.4511 8.15535 18.0323 7.1443C17.6135 6.13326 16.9997 5.2146 16.2259 4.44078C15.4521 3.66696 14.5334 3.05313 13.5224 2.63434C12.5113 2.21555 11.4277 2 10.3333 2Z" fill="white"/>
</svg>
